# xmcd
#
# Track frame offsets: 
#        150
#        12408
#        24841
#        38090
#        57080
#        68048
#        79506
#        94663
#        108905
#        129652
#        144417
#        156348
#        168524
#        180973
#        189463
#        200858
#        213272
#
# Disc length: 3034 seconds
#
# Revision: 0
# Processed by: cddbd v1.5.2PL0 Copyright (c) Steve Scherf et al.
# Submitted via: ExactAudioCopy v0.99pb4
#
DISCID=dc0bd811
DTITLE=Nat King Cole - Nat King Cole - Grandes Exitos
DYEAR=1900
DGENRE=Blues
TTITLE0=Early Morning Blues (Cole)
TTITLE1=This side up (Cole)
TTITLE2=Sweet Lorraine (Parish-Burwel)
TTITLE3=The trouble whit me is you (Tomlin-Tobias)
TTITLE4=Sweet Georgia Brown (Bernie-Pincard-Casey)
TTITLE5=Honeysuckle Rose (Waller-Razaf)
TTITLE6=Hit the ramp (Cole-Moore)
TTITLE7=Slow down (Evans)
TTITLE8=Bugle call rag (Meyers-Schoebel-Pettis)
TTITLE9=This will make you laugh (Higginbotham)
TTITLE10=Stop, the red light on (Miller)
TTITLE11=Cone with the draft (Cole-Prince-Dramin)
TTITLE12=I like to riff (Cole)
TTITLE13=Yes sir, that's my baby (Donaldson-Kahn)
TTITLE14=Too marvelous for words (Whitting)
TTITLE15=If you can't smile and say yes (Rogers-Jordan)
TTITLE16=That aint right (Cole)
EXTD=
EXTT0=
EXTT1=
EXTT2=
EXTT3=
EXTT4=
EXTT5=
EXTT6=
EXTT7=
EXTT8=
EXTT9=
EXTT10=
EXTT11=
EXTT12=
EXTT13=
EXTT14=
EXTT15=
EXTT16=
PLAYORDER=
